<svg width="500" height="500" viewBox="0 0 500 500" fill="none" xmlns="http://www.w3.org/2000/svg">
<rect x="25" y="25" width="450" height="450" rx="225" fill="#6628DF"/>
<rect x="25" y="25" width="450" height="450" rx="225" stroke="#27273B" stroke-width="50"/>
<path d="M188.104 326.354C176.261 326.354 165.387 324.525 155.481 320.867C145.791 317.209 137.393 312.152 130.287 305.696C123.181 299.025 117.69 291.171 113.814 282.133C109.938 272.88 108 262.658 108 251.468C108 239.633 110.046 228.981 114.137 219.513C118.228 209.829 123.827 201.652 130.933 194.981C138.039 188.31 146.33 183.146 155.804 179.487C165.279 175.829 175.4 174 186.166 174C197.794 174 208.131 176.044 217.175 180.133C226.434 184.006 234.186 189.494 240.431 196.595C246.675 203.481 251.413 211.658 254.643 221.127C258.088 230.38 259.811 240.386 259.811 251.146V259.538H146.76C148.698 270.943 153.543 279.658 161.295 285.684C169.263 291.709 179.276 294.722 191.334 294.722C199.948 294.722 207.915 293.215 215.237 290.203C222.773 286.975 229.018 282.563 233.971 276.968L256.258 297.304C248.721 306.772 239.031 313.981 227.188 318.93C215.344 323.88 202.316 326.354 188.104 326.354ZM184.551 206.278C175.077 206.278 167.109 208.861 160.649 214.025C154.405 218.975 150.098 226.076 147.729 235.329H221.374C220.082 227.152 216.206 220.266 209.746 214.671C203.285 209.076 194.887 206.278 184.551 206.278Z" fill="#EDEDED"/>
<path d="M333.228 327C320.093 327 308.68 324.956 298.99 320.867C289.515 316.778 281.763 311.076 275.734 303.759L294.468 278.582C299.421 283.532 305.235 287.62 311.91 290.848C318.801 294.076 326.23 295.69 334.197 295.69C347.117 295.69 353.577 291.709 353.577 283.747C353.577 279.873 351.747 276.753 348.086 274.386C344.641 272.019 340.226 269.867 334.843 267.93C329.46 265.778 323.646 263.627 317.401 261.475C311.156 259.108 305.342 256.203 299.959 252.759C294.576 249.101 290.054 244.582 286.393 239.203C282.947 233.608 281.225 226.614 281.225 218.222C281.225 204.019 286.608 193.152 297.375 185.62C308.142 177.873 321.923 174 338.719 174C350.993 174 361.329 175.937 369.727 179.81C378.341 183.468 385.124 187.665 390.076 192.399L372.957 218.222C368.435 214.133 363.375 210.905 357.776 208.538C352.177 206.171 346.256 204.987 340.011 204.987C333.12 204.987 328.168 206.171 325.153 208.538C322.138 210.69 320.631 213.272 320.631 216.285C320.631 219.943 322.354 222.848 325.799 225C329.46 227.152 333.982 229.089 339.365 230.81C344.748 232.316 350.562 234.038 356.807 235.975C363.052 237.911 368.866 240.601 374.249 244.044C379.633 247.487 384.047 252.006 387.492 257.601C391.153 263.196 392.983 270.513 392.983 279.551C392.983 287.943 391.368 295.152 388.138 301.177C385.124 307.203 380.925 312.152 375.541 316.025C370.158 319.899 363.806 322.696 356.484 324.418C349.378 326.139 341.626 327 333.228 327Z" fill="#EDEDED"/>
</svg>
